<?xml version="1.0" encoding="UTF-8"?>
<svg id="Layer_1" data-name="Layer 1" xmlns="http://www.w3.org/2000/svg" viewBox="0 0 530 205.13">
  <defs>
    <style>
      .cls-1, .cls-2 {
        stroke-width: 0px;
      }

      .cls-2 {
        fill: #fff;
      }
    </style>
  </defs>
  <g>
    <path class="cls-2" d="m31.85,48.3h15.91c2.39,0,4.32,1.9,4.32,4.25v48.48c0,5.5.12,14.5.27,20,0,0,.14,5.02.96,8.5.82,3.49,2.52,6.13,5.12,7.92,2.59,1.8,5.77,2.69,9.54,2.69,4.09,0,7.34-.99,9.74-2.98,2.4-1.98,3.87-4.61,4.42-7.88.55-3.27.64-8.26.64-8.26.1-5.5.18-14.5.18-20v-48.47c0-2.35,1.94-4.25,4.32-4.25h11.9c2.39,0,4.32,1.9,4.32,4.25v47.52c0,5.5-.15,14.5-.34,19.99,0,0-.39,11.53-1.83,17.59-1.45,6.06-5.13,11.26-11.05,15.6-5.92,4.34-14.07,6.51-24.44,6.51-9.72,0-17.36-1.6-22.92-4.78s-9.53-7.67-11.87-13.43c-2.35-5.76-3.05-20.53-3.05-20.53-.26-5.49-.47-14.49-.47-19.99v-48.48c0-2.34,1.94-4.25,4.33-4.25Z"/>
    <path class="cls-2" d="m128.62,48.3h58.32c2.21,0,4,1.76,4,3.92v10.98c0,2.17-1.79,3.92-4,3.92h-33.76c-2.21,0-4,1.76-4,3.92v20.86c0,2.17,1.79,3.92,4,3.92h24.18c2.21,0,4,1.76,4,3.92v10.97c0,2.17-1.79,3.92-4,3.92h-24.18c-2.21,0-4,1.76-4,3.92v35.58c0,2.17-1.79,3.92-4,3.92h-16.57c-2.21,0-4-1.76-4-3.92V52.23c0-2.17,1.8-3.93,4.01-3.93Z"/>
    <path class="cls-1" d="m210.91,182.33c0,5.5-4.97,10-11.03,10H18.03c-6.07,0-11.03-4.5-11.03-10V20.81c0-5.5,4.97-10,11.03-10h181.84c6.07,0,11.03,4.5,11.03,10v161.52Z"/>
    <path class="cls-2" d="m33.85,48.3h15.91c2.39,0,4.32,1.9,4.32,4.25v48.48c0,5.5.12,14.5.27,20,0,0,.14,5.02.96,8.5.82,3.49,2.52,6.13,5.12,7.92,2.59,1.8,5.77,2.69,9.54,2.69,4.09,0,7.34-.99,9.74-2.98,2.4-1.98,3.87-4.61,4.42-7.88.55-3.27.64-8.26.64-8.26.1-5.5.18-14.5.18-20v-48.47c0-2.35,1.94-4.25,4.32-4.25h11.9c2.39,0,4.32,1.9,4.32,4.25v47.52c0,5.5-.15,14.5-.34,19.99,0,0-.39,11.53-1.83,17.59-1.45,6.06-5.13,11.26-11.05,15.6-5.92,4.34-14.07,6.51-24.44,6.51-9.72,0-17.36-1.6-22.92-4.78s-9.53-7.67-11.87-13.43c-2.35-5.76-3.05-20.53-3.05-20.53-.26-5.49-.47-14.49-.47-19.99v-48.48c0-2.34,1.94-4.25,4.33-4.25Z"/>
    <path class="cls-2" d="m130.62,48.3h58.32c2.21,0,4,1.76,4,3.92v10.98c0,2.17-1.79,3.92-4,3.92h-33.76c-2.21,0-4,1.76-4,3.92v20.86c0,2.17,1.79,3.92,4,3.92h24.18c2.21,0,4,1.76,4,3.92v10.97c0,2.17-1.79,3.92-4,3.92h-24.18c-2.21,0-4,1.76-4,3.92v35.58c0,2.17-1.79,3.92-4,3.92h-16.57c-2.21,0-4-1.76-4-3.92V52.23c0-2.17,1.8-3.93,4.01-3.93Z"/>
  </g>
  <path class="cls-1" d="m231.92,77.32h18.74v46.68c0,6.58.31,11.17.94,13.76.62,2.59,1.93,4.56,3.91,5.89,1.98,1.34,4.4,2,7.28,2,3.12,0,5.6-.74,7.43-2.21,1.83-1.48,2.96-3.43,3.37-5.86.42-2.43.62-6.96.62-13.58v-46.68h15.68v45.96c0,9.18-.55,16.02-1.66,20.53-1.1,4.51-3.92,8.38-8.43,11.61-4.52,3.23-10.74,4.85-18.65,4.85-7.41,0-13.24-1.19-17.49-3.56-4.25-2.37-7.27-5.71-9.06-9.99-1.79-4.29-2.69-11.86-2.69-22.71v-46.69h.01Z"/>
  <path class="cls-1" d="m304.45,98.57h16.68v8.26c2.92-6.3,8.18-9.46,15.81-9.46,4.12,0,7.53.89,10.21,2.66,2.69,1.78,4.41,4.04,5.15,6.79.75,2.75,1.12,6.94,1.12,12.57v39.62h-17.62v-39.62c0-4.07-.54-6.58-1.62-7.54s-2.54-1.44-4.37-1.44c-3.17,0-5.25.93-6.25,2.78-1,1.86-1.5,5.32-1.5,10.38v35.43h-17.61v-60.43Z"/>
  <path class="cls-1" d="m383.17,93.6h-17.87v-16.7h17.87v16.7Zm-17.75,4.97h17.62v60.44h-17.62v-60.44Z"/>
  <path class="cls-1" d="m415.84,98.57h11.12v13.29h-11.12v47.16h-16.87v-47.17h-7.18v-13.28h7.18c.04-5.94.52-10.39,1.44-13.35.92-2.95,2.89-5.54,5.94-7.78,3.04-2.23,7.18-3.35,12.43-3.35,3.08,0,6.04.2,8.87.6v13.17c-1.42-.16-2.73-.24-3.94-.24-3.37,0-5.53.69-6.47,2.06-.93,1.38-1.4,4.34-1.4,8.89Z"/>
  <path class="cls-1" d="m451.83,93.6h-17.87v-16.7h17.87v16.7Zm-17.75,4.97h17.62v60.44h-17.62v-60.44Z"/>
  <path class="cls-1" d="m464.57,77.32h17.62v81.69h-17.62v-81.69Z"/>
  <path class="cls-1" d="m495.06,77.32h17.62v81.69h-17.62v-81.69Z"/>
  <path class="cls-1" d="m509.3,188.09H236.15c-1.86,0-3.37-1.51-3.37-3.37v-9.75c0-1.86,1.51-3.37,3.37-3.37h273.15c1.86,0,3.37,1.51,3.37,3.37v9.75c.01,1.86-1.5,3.37-3.37,3.37Z"/>
</svg>